<svg xmlns="http://www.w3.org/2000/svg" viewBox="0 0 400 240" fill="none" stroke="#3E7A45" stroke-width="3" stroke-linecap="round" stroke-linejoin="round">
  <!-- Supplier Network: supplier stock → parcel → your customer's door -->
  <path d="M60 150l40-30 40 30v50H60z" fill="#E6EFC9"/>
  <rect x="84" y="164" width="32" height="36" rx="4" fill="#D3E4A0" stroke-width="2.5"/>
  <path d="M84 176h32M84 188h32" stroke-width="2.5"/>
  <path d="M140 190c40 0 44-28 60-28s22 28 62 28" stroke-dasharray="1 11" stroke-width="4"/>
  <g>
    <animateTransform attributeName="transform" type="translate" values="0 0;0 -5;0 0" dur="2.6s" repeatCount="indefinite"/>
    <rect x="172" y="84" width="56" height="50" rx="8" fill="#C6F035"/>
    <rect x="194" y="84" width="12" height="50" fill="#FBFCF5" stroke-width="2.5"/>
    <path d="M172 100h56" stroke-width="2.5"/>
  </g>
  <path d="M150 96h-14M154 110h-22M150 124h-14" stroke="#D3E4A0"/>
  <path d="M258 146h82l-8-24h-66z" fill="#C6F035"/>
  <rect x="264" y="146" width="70" height="54" rx="4" fill="#FBFCF5"/>
  <rect x="290" y="170" width="20" height="30" rx="3" fill="#D3E4A0" stroke-width="2.5"/>
  <path d="M277 146v8M299 146v8M321 146v8" stroke-width="2.5"/>
  <circle cx="340" cy="92" r="12" fill="#FBFCF5" stroke-width="2.5"/>
  <path d="M334 92l4 4 8-8" stroke-width="2.5"/>
</svg>
